<?xml version="1.0" standalone="no"?><!DOCTYPE svg PUBLIC "-//W3C//DTD SVG 1.1//EN" "http://www.w3.org/Graphics/SVG/1.1/DTD/svg11.dtd"><svg t="1662519065247" class="icon" viewBox="0 0 1024 1024" version="1.1" xmlns="http://www.w3.org/2000/svg" p-id="3589" xmlns:xlink="http://www.w3.org/1999/xlink" width="200" height="200"><path d="M726.4 187.2h-384c-52.8 0-96 43.2-96 96v494.4c0 35.2 28.8 64 64 64 9.6 0 19.2-1.6 27.2-6.4l184-84.8 212.8 88c8 3.2 16 4.8 24 4.8 12.8 0 25.6-4.8 35.2-11.2 17.6-11.2 28.8-32 28.8-52.8v-496c0-52.8-43.2-96-96-96z m32 592l-225.6-92.8c-3.2-1.6-8-1.6-12.8-3.2-4.8 0-9.6 1.6-12.8 3.2l-196.8 91.2V283.2c0-17.6 14.4-32 32-32h384c17.6 0 32 14.4 32 32v496z" p-id="3590"></path><path d="M646.4 363.2h-224c-9.6 0-16 6.4-16 16s6.4 16 16 16h224c9.6 0 16-6.4 16-16s-6.4-16-16-16zM606.4 459.2h-144c-9.6 0-16 6.4-16 16s6.4 16 16 16h144c9.6 0 16-6.4 16-16s-6.4-16-16-16z" p-id="3591"></path></svg>